<svg width="278" height="37" viewBox="0 0 278 37" fill="none" xmlns="http://www.w3.org/2000/svg">
<path d="M0.88 36.144C0.56 36.144 0.336 36.032 0.208 35.808C0.0800002 35.584 0.0160002 35.344 0.0160002 35.088C0.0480001 34.544 0.176 34.24 0.4 34.176C0.624 34.112 0.896 34.08 1.216 34.08C2.24 34.08 2.96 33.904 3.376 33.552C3.792 33.168 4.048 32.704 4.144 32.16C4.272 31.584 4.352 30.992 4.384 30.384V11.328C4.352 10.72 4.272 10.144 4.144 9.6C4.048 9.024 3.792 8.56 3.376 8.208C2.96 7.824 2.24 7.632 1.216 7.632C0.896 7.632 0.624 7.6 0.4 7.536C0.176 7.472 0.0480001 7.168 0.0160002 6.624C0.0160002 6.368 0.0800002 6.128 0.208 5.904C0.336 5.68 0.56 5.568 0.88 5.568C1.904 5.6 2.864 5.632 3.76 5.664C4.688 5.696 5.632 5.712 6.592 5.712C8.544 5.712 10.544 5.664 12.592 5.568C12.88 5.568 13.088 5.68 13.216 5.904C13.376 6.128 13.456 6.368 13.456 6.624C13.424 7.168 13.296 7.472 13.072 7.536C12.848 7.6 12.56 7.632 12.208 7.632C11.216 7.632 10.496 7.824 10.048 8.208C9.632 8.56 9.376 9.024 9.28 9.6C9.184 10.144 9.12 10.72 9.088 11.328V30.384C9.12 30.992 9.184 31.584 9.28 32.16C9.376 32.704 9.632 33.168 10.048 33.552C10.496 33.904 11.216 34.08 12.208 34.08C12.56 34.08 12.848 34.112 13.072 34.176C13.296 34.24 13.424 34.544 13.456 35.088C13.456 35.344 13.376 35.584 13.216 35.808C13.088 36.032 12.88 36.144 12.592 36.144C10.544 36.048 8.56 36 6.64 36C5.68 36 4.736 36 3.808 36C2.88 36.032 1.904 36.08 0.88 36.144ZM14.962 36.144C14.738 36.144 14.546 36.048 14.386 35.856C14.258 35.632 14.194 35.408 14.194 35.184C14.258 34.704 14.386 34.448 14.578 34.416C14.77 34.352 15.026 34.32 15.346 34.32C16.242 34.32 16.85 34.176 17.17 33.888C17.49 33.568 17.666 33.152 17.698 32.64C17.762 32.128 17.794 31.6 17.794 31.056V20.064C17.794 19.488 17.762 18.96 17.698 18.48C17.666 17.968 17.49 17.568 17.17 17.28C16.85 16.96 16.242 16.8 15.346 16.8C15.058 16.8 14.786 16.768 14.53 16.704C14.306 16.608 14.194 16.32 14.194 15.84C14.194 15.36 14.45 15.072 14.962 14.976C16.434 14.752 17.554 14.528 18.322 14.304C19.122 14.08 19.714 13.888 20.098 13.728C20.514 13.568 20.882 13.472 21.202 13.44C21.458 13.408 21.666 13.456 21.826 13.584C22.018 13.712 22.114 13.968 22.114 14.352V17.376H22.258C22.898 16.768 23.554 16.192 24.226 15.648C24.898 15.072 25.682 14.608 26.578 14.256C27.506 13.872 28.642 13.68 29.986 13.68C32.162 13.68 33.89 14.336 35.17 15.648C36.45 16.96 37.09 18.688 37.09 20.832V31.056C37.09 31.6 37.106 32.128 37.138 32.64C37.202 33.152 37.394 33.568 37.714 33.888C38.066 34.176 38.69 34.32 39.586 34.32C39.874 34.32 40.114 34.352 40.306 34.416C40.53 34.448 40.658 34.704 40.69 35.184C40.69 35.408 40.626 35.632 40.498 35.856C40.37 36.048 40.178 36.144 39.922 36.144C38.994 36.08 38.13 36.032 37.33 36C36.562 36 35.746 36 34.882 36C34.018 36 33.202 36 32.434 36C31.666 36.032 30.818 36.08 29.89 36.144C29.666 36.144 29.474 36.048 29.314 35.856C29.186 35.632 29.122 35.408 29.122 35.184C29.154 34.704 29.266 34.448 29.458 34.416C29.682 34.352 29.938 34.32 30.226 34.32C31.122 34.32 31.73 34.176 32.05 33.888C32.402 33.568 32.594 33.152 32.626 32.64C32.69 32.128 32.722 31.6 32.722 31.056V20.88C32.722 19.824 32.482 18.96 32.002 18.288C31.554 17.616 30.978 17.12 30.274 16.8C29.57 16.48 28.85 16.32 28.114 16.32C27.026 16.32 26.066 16.528 25.234 16.944C24.402 17.328 23.73 17.776 23.218 18.288C22.706 18.8 22.354 19.248 22.162 19.632V31.056C22.162 31.6 22.178 32.128 22.21 32.64C22.274 33.152 22.466 33.568 22.786 33.888C23.138 34.176 23.762 34.32 24.658 34.32C24.946 34.32 25.186 34.352 25.378 34.416C25.602 34.448 25.73 34.704 25.762 35.184C25.762 35.408 25.698 35.632 25.57 35.856C25.442 36.048 25.25 36.144 24.994 36.144C24.066 36.08 23.202 36.032 22.402 36C21.634 36 20.818 36 19.954 36C19.09 36 18.274 36 17.506 36C16.738 36.032 15.89 36.08 14.962 36.144ZM48.7443 36.816C47.7843 36.816 46.8723 36.576 46.0083 36.096C45.1443 35.616 44.4243 34.88 43.8483 33.888C43.3043 32.896 43.0323 31.648 43.0323 30.144V16.032L40.2483 16.128C40.0243 16.128 39.8483 16.048 39.7203 15.888C39.6243 15.696 39.5763 15.488 39.5763 15.264C39.5763 14.624 39.8003 14.256 40.2483 14.16C41.4323 13.936 42.3283 13.568 42.9363 13.056C43.5443 12.512 44.0083 11.872 44.3283 11.136C44.6803 10.4 45.0003 9.6 45.2883 8.736C45.3843 8.48 45.5283 8.32 45.7203 8.256C45.9123 8.16 46.1203 8.112 46.3443 8.112C46.5363 8.112 46.7443 8.16 46.9683 8.256C47.2243 8.352 47.3523 8.528 47.3523 8.784L47.0163 14.256L52.6323 13.92C52.9203 13.888 53.1123 13.968 53.2083 14.16C53.3043 14.352 53.3523 14.576 53.3523 14.832C53.3523 15.152 53.2883 15.472 53.1603 15.792C53.0643 16.112 52.9363 16.272 52.7763 16.272L47.4003 16.128V30.72C47.4003 31.648 47.5923 32.496 47.9763 33.264C48.3923 34.032 49.1283 34.416 50.1843 34.416C50.5363 34.416 50.9363 34.384 51.3843 34.32C51.8323 34.256 52.3123 34.112 52.8243 33.888C52.9523 33.824 53.0803 33.776 53.2083 33.744C53.3363 33.68 53.4643 33.648 53.5923 33.648C53.8483 33.648 54.0403 33.76 54.1683 33.984C54.2963 34.176 54.4083 34.384 54.5043 34.608C54.6003 34.896 54.5203 35.12 54.2643 35.28C53.2723 35.92 52.3603 36.336 51.5283 36.528C50.6963 36.72 49.7683 36.816 48.7443 36.816ZM67.1237 36.576C64.6597 36.576 62.5797 36.048 60.8837 34.992C59.2197 33.936 57.9717 32.528 57.1397 30.768C56.3077 29.008 55.8917 27.088 55.8917 25.008C55.8917 23.6 56.1317 22.24 56.6117 20.928C57.1237 19.584 57.8437 18.368 58.7717 17.28C59.6997 16.16 60.8197 15.28 62.1317 14.64C63.4437 14 64.9317 13.68 66.5957 13.68C69.5397 13.68 71.7477 14.448 73.2197 15.984C74.7237 17.488 75.5877 19.408 75.8117 21.744C75.8117 22.864 75.4917 23.6 74.8517 23.952C74.2437 24.304 73.4437 24.48 72.4517 24.48H60.7877C60.7877 26.336 61.0437 28 61.5557 29.472C62.0677 30.912 62.8677 32.064 63.9557 32.928C65.0757 33.76 66.5477 34.176 68.3717 34.176C69.7157 34.176 70.8677 33.888 71.8277 33.312C72.7877 32.736 73.7157 31.728 74.6117 30.288C74.8677 29.968 75.2197 29.952 75.6677 30.24C75.9237 30.368 76.0837 30.576 76.1477 30.864C76.2117 31.12 76.1797 31.344 76.0517 31.536C75.0597 33.104 73.8117 34.336 72.3077 35.232C70.8037 36.128 69.0757 36.576 67.1237 36.576ZM60.7877 22.656H68.6117C69.3797 22.656 69.9877 22.512 70.4357 22.224C70.9157 21.904 71.1717 21.376 71.2037 20.64C71.2037 19.264 70.8197 18.048 70.0517 16.992C69.3157 15.904 68.1637 15.36 66.5957 15.36C64.9957 15.36 63.6517 16 62.5637 17.28C61.5077 18.56 60.9157 20.352 60.7877 22.656ZM77.7295 36.144C77.5055 36.144 77.3135 36.048 77.1535 35.856C77.0255 35.632 76.9615 35.408 76.9615 35.184C77.0255 34.704 77.1535 34.448 77.3455 34.416C77.5375 34.352 77.7935 34.32 78.1135 34.32C79.0095 34.32 79.6175 34.176 79.9375 33.888C80.2575 33.568 80.4335 33.152 80.4655 32.64C80.5295 32.128 80.5615 31.6 80.5615 31.056V20.064C80.5615 19.488 80.5295 18.96 80.4655 18.48C80.4335 17.968 80.2575 17.568 79.9375 17.28C79.6175 16.96 79.0095 16.8 78.1135 16.8C77.8255 16.8 77.5535 16.768 77.2975 16.704C77.0735 16.608 76.9615 16.32 76.9615 15.84C76.9615 15.36 77.2175 15.072 77.7295 14.976C79.2015 14.752 80.3215 14.528 81.0895 14.304C81.8895 14.08 82.4815 13.888 82.8655 13.728C83.2815 13.568 83.6495 13.472 83.9695 13.44C84.2255 13.408 84.4335 13.456 84.5935 13.584C84.7855 13.712 84.8815 13.968 84.8815 14.352V17.328H85.0255C86.1135 16.272 87.2335 15.408 88.3855 14.736C89.5375 14.032 90.5935 13.68 91.5535 13.68C92.6735 13.68 93.5215 14.096 94.0975 14.928C94.7055 15.76 95.0095 16.64 95.0095 17.568C95.0095 18.368 94.7535 19.152 94.2415 19.92C93.7295 20.656 92.9615 21.024 91.9375 21.024C91.4255 21.024 91.0095 20.928 90.6895 20.736C90.4015 20.512 90.2415 20.352 90.2095 20.256C90.2095 20.192 90.3535 20 90.6415 19.68C90.9615 19.36 91.1215 18.96 91.1215 18.48C91.1215 17.904 90.9615 17.44 90.6415 17.088C90.3535 16.736 89.9535 16.56 89.4415 16.56C88.8975 16.56 88.1935 16.832 87.3295 17.376C86.4975 17.92 85.6975 18.576 84.9295 19.344V31.056C84.9295 31.6 84.9455 32.128 84.9775 32.64C85.0415 33.152 85.2335 33.568 85.5535 33.888C85.9055 34.176 86.5295 34.32 87.4255 34.32C87.7135 34.32 87.9535 34.352 88.1455 34.416C88.3695 34.448 88.4975 34.704 88.5295 35.184C88.5295 35.408 88.4655 35.632 88.3375 35.856C88.2095 36.048 88.0175 36.144 87.7615 36.144C86.8335 36.08 85.9695 36.032 85.1695 36C84.4015 36 83.5855 36 82.7215 36C81.8575 36 81.0415 36 80.2735 36C79.5055 36.032 78.6575 36.08 77.7295 36.144ZM95.4801 36.144C95.2561 36.144 95.0641 36.048 94.9041 35.856C94.7761 35.632 94.7121 35.408 94.7121 35.184C94.7761 34.704 94.9041 34.448 95.0961 34.416C95.2881 34.352 95.5441 34.32 95.8641 34.32C96.7601 34.32 97.3681 34.176 97.6881 33.888C98.0081 33.568 98.1841 33.152 98.2161 32.64C98.2801 32.128 98.3121 31.6 98.3121 31.056V20.064C98.3121 19.488 98.2801 18.96 98.2161 18.48C98.1841 17.968 98.0081 17.568 97.6881 17.28C97.3681 16.96 96.7601 16.8 95.8641 16.8C95.5761 16.8 95.3041 16.768 95.0481 16.704C94.8241 16.608 94.7121 16.32 94.7121 15.84C94.7121 15.36 94.9681 15.072 95.4801 14.976C96.9521 14.752 98.0721 14.528 98.8401 14.304C99.6401 14.08 100.232 13.888 100.616 13.728C101.032 13.568 101.4 13.472 101.72 13.44C101.976 13.408 102.184 13.456 102.344 13.584C102.536 13.712 102.632 13.968 102.632 14.352V17.376H102.776C103.416 16.768 104.072 16.192 104.744 15.648C105.416 15.072 106.2 14.608 107.096 14.256C108.024 13.872 109.16 13.68 110.504 13.68C112.68 13.68 114.408 14.336 115.688 15.648C116.968 16.96 117.608 18.688 117.608 20.832V31.056C117.608 31.6 117.624 32.128 117.656 32.64C117.72 33.152 117.912 33.568 118.232 33.888C118.584 34.176 119.208 34.32 120.104 34.32C120.392 34.32 120.632 34.352 120.824 34.416C121.048 34.448 121.176 34.704 121.208 35.184C121.208 35.408 121.144 35.632 121.016 35.856C120.888 36.048 120.696 36.144 120.44 36.144C119.512 36.08 118.648 36.032 117.848 36C117.08 36 116.264 36 115.4 36C114.536 36 113.72 36 112.952 36C112.184 36.032 111.336 36.08 110.408 36.144C110.184 36.144 109.992 36.048 109.832 35.856C109.704 35.632 109.64 35.408 109.64 35.184C109.672 34.704 109.784 34.448 109.976 34.416C110.2 34.352 110.456 34.32 110.744 34.32C111.64 34.32 112.248 34.176 112.568 33.888C112.92 33.568 113.112 33.152 113.144 32.64C113.208 32.128 113.24 31.6 113.24 31.056V20.88C113.24 19.824 113 18.96 112.52 18.288C112.072 17.616 111.496 17.12 110.792 16.8C110.088 16.48 109.368 16.32 108.632 16.32C107.544 16.32 106.584 16.528 105.752 16.944C104.92 17.328 104.248 17.776 103.736 18.288C103.224 18.8 102.872 19.248 102.68 19.632V31.056C102.68 31.6 102.696 32.128 102.728 32.64C102.792 33.152 102.984 33.568 103.304 33.888C103.656 34.176 104.28 34.32 105.176 34.32C105.464 34.32 105.704 34.352 105.896 34.416C106.12 34.448 106.248 34.704 106.28 35.184C106.28 35.408 106.216 35.632 106.088 35.856C105.96 36.048 105.768 36.144 105.512 36.144C104.584 36.08 103.72 36.032 102.92 36C102.152 36 101.336 36 100.472 36C99.6081 36 98.7921 36 98.0241 36C97.2561 36.032 96.4081 36.08 95.4801 36.144ZM127.286 36.576C125.334 36.576 123.766 36.016 122.582 34.896C121.43 33.776 120.854 32.432 120.854 30.864C120.854 29.232 121.27 27.952 122.102 27.024C122.966 26.096 124.086 25.408 125.462 24.96C126.87 24.512 128.39 24.208 130.022 24.048C131.686 23.888 133.302 23.76 134.87 23.664V19.872C134.87 18.368 134.486 17.2 133.718 16.368C132.982 15.504 131.718 15.072 129.926 15.072C129.03 15.072 128.182 15.36 127.382 15.936C126.614 16.512 126.23 17.344 126.23 18.432C126.23 18.944 126.358 19.376 126.614 19.728C126.87 20.08 127.126 20.352 127.382 20.544C127.638 20.736 127.766 20.864 127.766 20.928C127.766 21.056 127.574 21.296 127.19 21.648C126.838 21.968 126.342 22.128 125.702 22.128C124.71 22.128 123.942 21.76 123.398 21.024C122.854 20.288 122.582 19.472 122.582 18.576C122.582 17.36 122.95 16.4 123.686 15.696C124.454 14.992 125.43 14.48 126.614 14.16C127.798 13.84 128.998 13.68 130.214 13.68C131.654 13.68 133.046 13.856 134.39 14.208C135.766 14.56 136.886 15.232 137.75 16.224C138.646 17.216 139.094 18.704 139.094 20.688V31.872C139.126 32.192 139.206 32.576 139.334 33.024C139.462 33.472 139.702 33.872 140.054 34.224C140.438 34.544 140.95 34.704 141.59 34.704C141.814 34.704 141.99 34.752 142.118 34.848C142.246 34.912 142.31 35.12 142.31 35.472C142.31 35.76 142.15 35.984 141.83 36.144C141.51 36.304 141.142 36.416 140.726 36.48C140.31 36.544 139.958 36.576 139.67 36.576C138.486 36.576 137.43 36.24 136.502 35.568C135.574 34.864 135.03 33.904 134.87 32.688C134.166 33.968 133.11 34.944 131.702 35.616C130.326 36.256 128.854 36.576 127.286 36.576ZM128.822 33.984C129.91 33.984 130.902 33.712 131.798 33.168C132.726 32.624 133.462 31.888 134.006 30.96C134.582 30 134.87 28.944 134.87 27.792V25.056C131.574 25.28 129.222 25.808 127.814 26.64C126.406 27.472 125.702 28.832 125.702 30.72C125.702 32.896 126.742 33.984 128.822 33.984ZM143.125 36.144C142.869 36.144 142.677 36.048 142.549 35.856C142.421 35.632 142.357 35.408 142.357 35.184C142.389 34.704 142.501 34.448 142.693 34.416C142.885 34.352 143.141 34.32 143.461 34.32C144.389 34.32 145.029 34.192 145.381 33.936C145.765 33.648 146.213 33.008 146.725 32.016L153.349 18.24C153.893 17.056 154.053 16.352 153.829 16.128C153.605 15.904 153.029 15.792 152.101 15.792H150.085C149.093 15.792 148.277 15.92 147.637 16.176C147.029 16.432 146.549 16.96 146.197 17.76C145.845 18.56 145.557 19.76 145.333 21.36C145.301 21.616 145.141 21.808 144.853 21.936C144.565 22.064 144.245 22.128 143.893 22.128C143.669 22.128 143.429 22.064 143.173 21.936C142.949 21.776 142.837 21.552 142.837 21.264L143.653 15.36C143.717 14.88 143.845 14.576 144.037 14.448C144.229 14.32 144.469 14.256 144.757 14.256H157.909C158.485 14.256 158.933 14.256 159.253 14.256C159.605 14.224 159.957 14.208 160.309 14.208C160.693 14.176 161.189 14.144 161.797 14.112C162.053 14.112 162.245 14.208 162.373 14.4C162.501 14.592 162.565 14.816 162.565 15.072C162.533 15.552 162.405 15.824 162.181 15.888C161.989 15.92 161.749 15.936 161.461 15.936C160.565 15.936 159.925 16.064 159.541 16.32C159.157 16.576 158.693 17.216 158.149 18.24L151.573 32.016C151.029 33.2 150.869 33.904 151.093 34.128C151.349 34.352 151.925 34.464 152.821 34.464H155.509C156.533 34.464 157.349 34.336 157.957 34.08C158.565 33.824 159.045 33.296 159.397 32.496C159.781 31.696 160.069 30.496 160.261 28.896C160.293 28.64 160.453 28.448 160.741 28.32C161.061 28.192 161.381 28.128 161.701 28.128C161.957 28.128 162.197 28.208 162.421 28.368C162.645 28.496 162.757 28.704 162.757 28.992L161.941 34.896C161.877 35.376 161.749 35.68 161.557 35.808C161.365 35.936 161.125 36 160.837 36H146.965C146.421 36 145.973 36 145.621 36C145.269 36.032 144.917 36.048 144.565 36.048C144.213 36.08 143.733 36.112 143.125 36.144ZM164.435 36.144C164.211 36.144 164.019 36.048 163.859 35.856C163.731 35.632 163.667 35.408 163.667 35.184C163.731 34.704 163.859 34.448 164.051 34.416C164.243 34.352 164.499 34.32 164.819 34.32C165.715 34.32 166.323 34.176 166.643 33.888C166.963 33.568 167.139 33.152 167.171 32.64C167.235 32.128 167.267 31.6 167.267 31.056V20.064C167.267 19.488 167.235 18.96 167.171 18.48C167.139 17.968 166.963 17.568 166.643 17.28C166.323 16.96 165.715 16.8 164.819 16.8C164.531 16.8 164.259 16.768 164.003 16.704C163.779 16.608 163.667 16.32 163.667 15.84C163.667 15.36 163.923 15.072 164.435 14.976C165.907 14.752 167.027 14.528 167.795 14.304C168.595 14.08 169.203 13.888 169.619 13.728C170.035 13.568 170.403 13.472 170.723 13.44C170.979 13.408 171.187 13.456 171.347 13.584C171.539 13.712 171.635 13.968 171.635 14.352V31.056C171.635 31.6 171.651 32.128 171.683 32.64C171.747 33.152 171.939 33.568 172.259 33.888C172.611 34.176 173.235 34.32 174.131 34.32C174.419 34.32 174.659 34.352 174.851 34.416C175.075 34.448 175.203 34.704 175.235 35.184C175.235 35.408 175.171 35.632 175.043 35.856C174.915 36.048 174.723 36.144 174.467 36.144C173.539 36.08 172.675 36.032 171.875 36C171.107 36 170.291 36 169.427 36C168.563 36 167.747 36 166.979 36C166.211 36.032 165.363 36.08 164.435 36.144ZM169.187 8.112C168.291 8.112 167.539 7.84 166.931 7.296C166.323 6.72 166.019 6.016 166.019 5.184C166.019 4.448 166.387 3.792 167.123 3.216C167.859 2.64 168.691 2.352 169.619 2.352C170.419 2.352 171.075 2.64 171.587 3.216C172.099 3.76 172.355 4.464 172.355 5.328C172.355 6.096 172.051 6.752 171.443 7.296C170.835 7.84 170.083 8.112 169.187 8.112ZM186.47 36.576C184.23 36.576 182.262 36.048 180.566 34.992C178.902 33.936 177.606 32.56 176.678 30.864C175.75 29.168 175.286 27.36 175.286 25.44C175.286 23.552 175.622 21.872 176.294 20.4C176.966 18.928 177.846 17.696 178.934 16.704C180.054 15.712 181.27 14.96 182.582 14.448C183.894 13.936 185.19 13.68 186.47 13.68C188.71 13.68 190.662 14.208 192.326 15.264C194.022 16.32 195.334 17.696 196.262 19.392C197.19 21.088 197.654 22.896 197.654 24.816C197.654 26.704 197.302 28.384 196.598 29.856C195.926 31.328 195.03 32.56 193.91 33.552C192.822 34.544 191.622 35.296 190.31 35.808C188.998 36.32 187.718 36.576 186.47 36.576ZM186.47 34.8C188.038 34.8 189.27 34.336 190.166 33.408C191.094 32.48 191.75 31.264 192.134 29.76C192.55 28.224 192.758 26.576 192.758 24.816C192.758 23.12 192.55 21.568 192.134 20.16C191.718 18.752 191.046 17.616 190.118 16.752C189.19 15.888 187.974 15.456 186.47 15.456C184.902 15.456 183.654 15.92 182.726 16.848C181.798 17.744 181.142 18.944 180.758 20.448C180.374 21.92 180.182 23.552 180.182 25.344C180.182 27.008 180.374 28.56 180.758 30C181.174 31.44 181.846 32.608 182.774 33.504C183.702 34.368 184.934 34.8 186.47 34.8ZM199.046 36.144C198.822 36.144 198.63 36.048 198.47 35.856C198.342 35.632 198.278 35.408 198.278 35.184C198.342 34.704 198.47 34.448 198.662 34.416C198.854 34.352 199.11 34.32 199.43 34.32C200.326 34.32 200.934 34.176 201.254 33.888C201.574 33.568 201.75 33.152 201.782 32.64C201.846 32.128 201.878 31.6 201.878 31.056V20.064C201.878 19.488 201.846 18.96 201.782 18.48C201.75 17.968 201.574 17.568 201.254 17.28C200.934 16.96 200.326 16.8 199.43 16.8C199.142 16.8 198.87 16.768 198.614 16.704C198.39 16.608 198.278 16.32 198.278 15.84C198.278 15.36 198.534 15.072 199.046 14.976C200.518 14.752 201.638 14.528 202.406 14.304C203.206 14.08 203.798 13.888 204.182 13.728C204.598 13.568 204.966 13.472 205.286 13.44C205.542 13.408 205.75 13.456 205.91 13.584C206.102 13.712 206.198 13.968 206.198 14.352V17.376H206.342C206.982 16.768 207.638 16.192 208.31 15.648C208.982 15.072 209.766 14.608 210.662 14.256C211.59 13.872 212.726 13.68 214.07 13.68C216.246 13.68 217.974 14.336 219.254 15.648C220.534 16.96 221.174 18.688 221.174 20.832V31.056C221.174 31.6 221.19 32.128 221.222 32.64C221.286 33.152 221.478 33.568 221.798 33.888C222.15 34.176 222.774 34.32 223.67 34.32C223.958 34.32 224.198 34.352 224.39 34.416C224.614 34.448 224.742 34.704 224.774 35.184C224.774 35.408 224.71 35.632 224.582 35.856C224.454 36.048 224.262 36.144 224.006 36.144C223.078 36.08 222.214 36.032 221.414 36C220.646 36 219.83 36 218.966 36C218.102 36 217.286 36 216.518 36C215.75 36.032 214.902 36.08 213.974 36.144C213.75 36.144 213.558 36.048 213.398 35.856C213.27 35.632 213.206 35.408 213.206 35.184C213.238 34.704 213.35 34.448 213.542 34.416C213.766 34.352 214.022 34.32 214.31 34.32C215.206 34.32 215.814 34.176 216.134 33.888C216.486 33.568 216.678 33.152 216.71 32.64C216.774 32.128 216.806 31.6 216.806 31.056V20.88C216.806 19.824 216.566 18.96 216.086 18.288C215.638 17.616 215.062 17.12 214.358 16.8C213.654 16.48 212.934 16.32 212.198 16.32C211.11 16.32 210.15 16.528 209.318 16.944C208.486 17.328 207.814 17.776 207.302 18.288C206.79 18.8 206.438 19.248 206.246 19.632V31.056C206.246 31.6 206.262 32.128 206.294 32.64C206.358 33.152 206.55 33.568 206.87 33.888C207.222 34.176 207.846 34.32 208.742 34.32C209.03 34.32 209.27 34.352 209.462 34.416C209.686 34.448 209.814 34.704 209.846 35.184C209.846 35.408 209.782 35.632 209.654 35.856C209.526 36.048 209.334 36.144 209.078 36.144C208.15 36.08 207.286 36.032 206.486 36C205.718 36 204.902 36 204.038 36C203.174 36 202.358 36 201.59 36C200.822 36.032 199.974 36.08 199.046 36.144ZM230.852 36.576C228.9 36.576 227.332 36.016 226.148 34.896C224.996 33.776 224.42 32.432 224.42 30.864C224.42 29.232 224.836 27.952 225.668 27.024C226.532 26.096 227.652 25.408 229.028 24.96C230.436 24.512 231.956 24.208 233.588 24.048C235.252 23.888 236.868 23.76 238.436 23.664V19.872C238.436 18.368 238.052 17.2 237.284 16.368C236.548 15.504 235.284 15.072 233.492 15.072C232.596 15.072 231.748 15.36 230.948 15.936C230.18 16.512 229.796 17.344 229.796 18.432C229.796 18.944 229.924 19.376 230.18 19.728C230.436 20.08 230.692 20.352 230.948 20.544C231.204 20.736 231.332 20.864 231.332 20.928C231.332 21.056 231.14 21.296 230.756 21.648C230.404 21.968 229.908 22.128 229.268 22.128C228.276 22.128 227.508 21.76 226.964 21.024C226.42 20.288 226.148 19.472 226.148 18.576C226.148 17.36 226.516 16.4 227.252 15.696C228.02 14.992 228.996 14.48 230.18 14.16C231.364 13.84 232.564 13.68 233.78 13.68C235.22 13.68 236.612 13.856 237.956 14.208C239.332 14.56 240.452 15.232 241.316 16.224C242.212 17.216 242.66 18.704 242.66 20.688V31.872C242.692 32.192 242.772 32.576 242.9 33.024C243.028 33.472 243.268 33.872 243.62 34.224C244.004 34.544 244.516 34.704 245.156 34.704C245.38 34.704 245.556 34.752 245.684 34.848C245.812 34.912 245.876 35.12 245.876 35.472C245.876 35.76 245.716 35.984 245.396 36.144C245.076 36.304 244.708 36.416 244.292 36.48C243.876 36.544 243.524 36.576 243.236 36.576C242.052 36.576 240.996 36.24 240.068 35.568C239.14 34.864 238.596 33.904 238.436 32.688C237.732 33.968 236.676 34.944 235.268 35.616C233.892 36.256 232.42 36.576 230.852 36.576ZM232.388 33.984C233.476 33.984 234.468 33.712 235.364 33.168C236.292 32.624 237.028 31.888 237.572 30.96C238.148 30 238.436 28.944 238.436 27.792V25.056C235.14 25.28 232.788 25.808 231.38 26.64C229.972 27.472 229.268 28.832 229.268 30.72C229.268 32.896 230.308 33.984 232.388 33.984ZM246.067 36.144C245.843 36.144 245.651 36.048 245.491 35.856C245.363 35.632 245.299 35.408 245.299 35.184C245.331 34.704 245.443 34.448 245.635 34.416C245.859 34.352 246.115 34.32 246.403 34.32C247.299 34.32 247.907 34.176 248.227 33.888C248.579 33.568 248.771 33.152 248.803 32.64C248.867 32.128 248.899 31.6 248.899 31.056V7.632C248.899 7.056 248.867 6.528 248.803 6.048C248.771 5.536 248.595 5.136 248.275 4.848C247.955 4.528 247.347 4.368 246.451 4.368C246.163 4.368 245.891 4.336 245.635 4.272C245.411 4.176 245.299 3.888 245.299 3.408C245.299 2.928 245.555 2.64 246.067 2.544C247.539 2.32 248.659 2.096 249.427 1.872C250.227 1.648 250.835 1.456 251.251 1.296C251.667 1.136 252.035 1.04 252.355 1.008C252.611 0.975999 252.819 1.024 252.979 1.152C253.171 1.28 253.267 1.536 253.267 1.92V31.056C253.267 31.6 253.283 32.128 253.315 32.64C253.379 33.152 253.571 33.568 253.891 33.888C254.243 34.176 254.867 34.32 255.763 34.32C256.051 34.32 256.291 34.352 256.483 34.416C256.707 34.448 256.835 34.704 256.867 35.184C256.867 35.408 256.803 35.632 256.675 35.856C256.547 36.048 256.355 36.144 256.099 36.144C255.171 36.08 254.307 36.032 253.507 36C252.739 36 251.923 36 251.059 36C250.195 36 249.379 36 248.611 36C247.843 36.032 246.995 36.08 246.067 36.144ZM268.161 36.576C265.697 36.576 263.617 36.048 261.921 34.992C260.257 33.936 259.009 32.528 258.177 30.768C257.345 29.008 256.929 27.088 256.929 25.008C256.929 23.6 257.169 22.24 257.649 20.928C258.161 19.584 258.881 18.368 259.809 17.28C260.737 16.16 261.857 15.28 263.169 14.64C264.481 14 265.969 13.68 267.633 13.68C270.577 13.68 272.785 14.448 274.257 15.984C275.761 17.488 276.625 19.408 276.849 21.744C276.849 22.864 276.529 23.6 275.889 23.952C275.281 24.304 274.481 24.48 273.489 24.48H261.825C261.825 26.336 262.081 28 262.593 29.472C263.105 30.912 263.905 32.064 264.993 32.928C266.113 33.76 267.585 34.176 269.409 34.176C270.753 34.176 271.905 33.888 272.865 33.312C273.825 32.736 274.753 31.728 275.649 30.288C275.905 29.968 276.257 29.952 276.705 30.24C276.961 30.368 277.121 30.576 277.185 30.864C277.249 31.12 277.217 31.344 277.089 31.536C276.097 33.104 274.849 34.336 273.345 35.232C271.841 36.128 270.113 36.576 268.161 36.576ZM261.825 22.656H269.649C270.417 22.656 271.025 22.512 271.473 22.224C271.953 21.904 272.209 21.376 272.241 20.64C272.241 19.264 271.857 18.048 271.089 16.992C270.353 15.904 269.201 15.36 267.633 15.36C266.033 15.36 264.689 16 263.601 17.28C262.545 18.56 261.953 20.352 261.825 22.656Z" fill="black"/>
</svg>
