<svg width="100" height="100" viewBox="0 0 100 100" fill="none" xmlns="http://www.w3.org/2000/svg">
<path d="M73.0399 40.918C74.7977 40.918 75.8963 39.9449 75.9905 38.6579C75.9905 38.5324 75.9905 38.3754 75.9905 38.2812C76.1161 36.649 77.2147 35.5818 79.255 34.2634C82.3626 32.2231 84.3401 30.4025 84.3401 26.7927C84.3401 21.582 79.6317 18.5686 74.0444 18.5686C68.6768 18.5686 65.0042 21.017 64.0311 23.9676C63.8428 24.5013 63.7172 25.0663 63.7172 25.6313C63.7172 27.138 64.91 28.0797 66.3539 28.0797C68.2059 28.0797 68.614 27.138 69.5557 26.0707C70.5915 24.5013 71.9099 23.591 73.7619 23.591C76.2416 23.591 77.8425 25.0035 77.8425 27.1066C77.8425 29.0213 76.5241 30.0572 73.8874 31.9092C71.6588 33.4473 70.0265 35.0481 70.0265 37.8732V38.2185C70.0265 40.0077 71.1251 40.918 73.0399 40.918ZM42.2154 48.4828C49.0583 48.4828 54.8654 42.3933 54.8654 34.5145C54.8654 26.8241 49.0269 20.9229 42.2154 20.9229C35.3725 20.9229 29.5027 26.9182 29.534 34.5773C29.534 42.3933 35.3411 48.4828 42.2154 48.4828ZM73.0085 50.5859C75.0174 50.5859 76.6811 49.1106 76.6811 47.1017C76.6811 45.1242 75.0488 43.6489 73.0085 43.6489C70.9682 43.6489 69.3045 45.1242 69.3045 47.1017C69.3045 49.0792 70.9682 50.5859 73.0085 50.5859ZM22.6283 77.6751H61.7397C66.9189 77.6751 68.7081 76.1056 68.7081 73.2178C68.7081 65.1507 58.4752 54.0388 42.184 54.0388C25.9242 54.0388 15.6599 65.1507 15.6599 73.2178C15.6599 76.1056 17.4491 77.6751 22.6283 77.6751Z" fill="black"/>
</svg>
